<?xml version="1.0" encoding="utf-8"?>
<svg width="48px" height="48px" viewBox="0 0 48 48" version="1.1" xmlns:xlink="http://www.w3.org/1999/xlink" xmlns="http://www.w3.org/2000/svg">
  <defs>
    <path d="M0 0L48 0L48 48L0 48L0 0Z" id="path_1" />
    <clipPath id="clip_1">
      <use xlink:href="#path_1" />
    </clipPath>
  </defs>
  <g id="Fraction" clip-path="url(#clip_1)">
    <path d="M0 0L48 0L48 48L0 48L0 0Z" id="Fraction" fill="none" fill-rule="evenodd" stroke="none" />
    <path d="M12.4062 13.2859L12.4062 23.877L14.5794 23.877L14.5794 11L12.4062 11L8.99999 13.265L8.99999 15.488L12.3017 13.2859L12.4062 13.2859L12.4062 13.2859ZM13.4392 35.999L26.1105 14.9336L24.0273 14.9336L11.3274 35.999L13.4392 35.999L13.4392 35.999ZM23.1246 32.416L22.0711 34.6148C22.5899 34.8151 23.0129 34.9152 23.3401 34.9152C24.6411 34.9152 26.4449 33.4413 28.7515 30.4935L29.7212 29.256L31.2656 32.9327C31.8244 34.2544 32.5547 34.9152 33.4565 34.9152C34.3984 34.9152 35.4798 34.2424 36.701 32.8966L36.9883 31.4548C35.9746 32.6483 35.1845 33.2451 34.6178 33.2451C34.2028 33.2451 33.7878 32.7444 33.3727 31.7432L31.5769 27.5498L32.1516 26.8529C33.9394 24.658 35.4958 23.5607 36.8207 23.5607C37.124 23.5607 37.4393 23.6608 37.7665 23.8611L38.9996 21.6742C38.5766 21.4099 38.1655 21.2777 37.7665 21.2777C36.2739 21.2777 34.3624 22.7677 32.0319 25.7475L31.2537 26.7447L29.8889 23.6087C29.2104 22.0548 28.4842 21.2777 27.7099 21.2777C26.8799 21.2777 25.8822 22.0467 24.7169 23.5847L24.4057 25.1587C25.3794 23.853 26.1057 23.2002 26.5846 23.2002C26.9757 23.2002 27.3747 23.6848 27.7818 24.6541L29.41 28.499L28.6917 29.3761C26.8639 31.571 25.3434 32.6683 24.1303 32.6683C23.7552 32.6683 23.42 32.5842 23.1246 32.416L23.1246 32.416Z" id="Shape" fill="#FFFFFF" fill-rule="evenodd" stroke="none" />
  </g>
</svg>