<?xml version="1.0" encoding="utf-8"?>
<svg width="48px" height="48px" viewBox="0 0 48 48" version="1.1" xmlns:xlink="http://www.w3.org/1999/xlink" xmlns="http://www.w3.org/2000/svg">
  <defs>
    <path d="M0 0L48 0L48 48L0 48L0 0Z" id="path_1" />
    <clipPath id="clip_1">
      <use xlink:href="#path_1" />
    </clipPath>
  </defs>
  <g id="Always on top" clip-path="url(#clip_1)">
    <path d="M0 0L48 0L48 48L0 48L0 0Z" id="Always-on-top" fill="none" fill-rule="evenodd" stroke="none" />
    <path d="M35.4972 41.9962C39.063 41.9962 41.9966 39.0626 41.9966 35.4968L41.9966 12.4992C41.9966 8.93335 39.063 5.9998 35.4972 5.9998L12.4996 5.99979C8.93375 5.99979 6.0002 8.93335 6.0002 12.4991L6.0002 19.9984C5.99 20.7196 6.36891 21.3904 6.99185 21.754C7.61477 22.1176 8.38522 22.1176 9.00815 21.754C9.63108 21.3904 10.01 20.7196 9.9998 19.9984L9.9998 12.4991C9.9998 11.0954 11.0958 9.99939 12.4995 9.99939L35.4972 9.9994C36.901 9.9994 37.997 11.0954 37.997 12.4992L37.997 35.4968C37.997 36.9006 36.901 37.9966 35.4972 37.9966L27.998 37.9966C27.2768 37.9864 26.606 38.3653 26.2424 38.9882C25.8788 39.6112 25.8788 40.3816 26.2424 41.0046C26.606 41.6275 27.2768 42.0064 27.998 41.9962L35.4972 41.9962L35.4972 41.9962ZM37.9963 23.9962L29.9956 23.9962C28.339 23.9962 26.925 23.4105 25.7537 22.2391C24.5823 21.0678 23.9966 19.6538 23.9966 17.9972L23.9966 9.9962L27.9966 9.9962L27.9966 17.9972C27.9966 18.5492 28.1918 19.0204 28.5821 19.4107C28.9724 19.801 29.4436 19.9962 29.9956 19.9962L37.9966 19.9962L37.9963 23.9962ZM19.001 23L6 23L6 25.001Q6 25.0992 6.00963 25.1969Q6.01925 25.2947 6.03841 25.391Q6.05757 25.4873 6.08608 25.5813Q6.11458 25.6753 6.15216 25.766Q6.18975 25.8567 6.23604 25.9433Q6.28233 26.0299 6.33689 26.1116Q6.39145 26.1932 6.45375 26.2691Q6.51605 26.3451 6.58549 26.4145Q6.65493 26.4839 6.73085 26.5462Q6.80676 26.6085 6.88841 26.6631Q6.97007 26.7177 7.05668 26.764Q7.14329 26.8102 7.23401 26.8478Q7.32474 26.8854 7.41872 26.9139Q7.5127 26.9424 7.60901 26.9616Q7.70533 26.9807 7.80306 26.9904Q7.9008 27 7.999 27C11.4956 27 18.354 27 18.354 27C18.354 27 6.77608 36.7151 6.77608 36.7151C6.57301 36.8854 6.41028 37.0882 6.28787 37.3233C6.16547 37.5585 6.09271 37.8081 6.06961 38.0721C6.04652 38.3362 6.07483 38.5947 6.15454 38.8475C6.23424 39.1003 6.35928 39.3282 6.52968 39.5313C6.52968 39.5313 6.53098 39.5328 6.53098 39.5328C6.70137 39.7359 6.90414 39.8986 7.13927 40.021C7.37439 40.1434 7.62399 40.2162 7.88806 40.2393C8.15215 40.2624 8.41058 40.2341 8.66341 40.1544C8.91623 40.0747 9.14417 39.9496 9.34723 39.7792C9.34723 39.7792 21 30.0014 21 30.0014L21 40.001Q21 40.0992 21.0096 40.1969Q21.0193 40.2947 21.0384 40.391Q21.0576 40.4873 21.0861 40.5813Q21.1146 40.6753 21.1522 40.766Q21.1897 40.8567 21.236 40.9433Q21.2823 41.0299 21.3369 41.1116Q21.3915 41.1932 21.4538 41.2691Q21.5161 41.3451 21.5855 41.4145Q21.6549 41.4839 21.7308 41.5462Q21.8068 41.6085 21.8884 41.6631Q21.9701 41.7177 22.0567 41.764Q22.1433 41.8102 22.234 41.8478Q22.3247 41.8854 22.4187 41.9139Q22.5127 41.9424 22.609 41.9616Q22.7053 41.9807 22.8031 41.9904Q22.9008 42 22.999 42C23.9993 42 25 42 25 42C25 42 25 28.999 25 28.999C25 27.3424 24.4143 25.9284 23.2429 24.757C22.0716 23.5857 20.6576 23 19.001 23Z" id="Shape" fill="#FFFFFF" fill-rule="evenodd" stroke="none" />
  </g>
</svg>