<?xml version="1.0" encoding="utf-8"?>
<svg width="64px" height="64px" viewBox="0 0 64 64" version="1.1" xmlns:xlink="http://www.w3.org/1999/xlink" xmlns="http://www.w3.org/2000/svg">
  <defs>
    <linearGradient gradientUnits="userSpaceOnUse" x1="0" y1="0" x2="36" y2="13" id="gradient_1">
      <stop offset="0%" stop-color="#A2F9FF" />
      <stop offset="100%" stop-color="#39BCDF" />
    </linearGradient>
    <path d="M0 0L64 0L64 64L0 64L0 0Z" id="path_1" />
    <clipPath id="clip_1">
      <use xlink:href="#path_1" />
    </clipPath>
  </defs>
  <g id="Calculator" clip-path="url(#clip_1)">
    <path d="M0 0L64 0L64 64L0 64L0 0Z" id="Calculator" fill="#FFFFFF" fill-opacity="0" fill-rule="evenodd" stroke="none" />
    <g id="Group" transform="translate(11 4)">
      <path d="M2.999 0L39.001 0Q39.1483 0 39.295 0.014441Q39.4416 0.028882 39.5861 0.0576249Q39.7306 0.0863679 39.8716 0.129136Q40.0125 0.171904 40.1487 0.228285Q40.2848 0.284667 40.4147 0.354118Q40.5446 0.42357 40.6671 0.505423Q40.7897 0.587276 40.9035 0.680742Q41.0174 0.774208 41.1216 0.878387Q41.2258 0.982566 41.3193 1.09645Q41.4127 1.21034 41.4946 1.33284Q41.5764 1.45535 41.6459 1.58528Q41.7153 1.71522 41.7717 1.85133Q41.8281 1.98745 41.8709 2.12844Q41.9136 2.26942 41.9424 2.41392Q41.9711 2.55842 41.9856 2.70505Q42 2.85167 42 2.999L42 52.001Q42 52.1483 41.9856 52.295Q41.9711 52.4416 41.9424 52.5861Q41.9136 52.7306 41.8709 52.8716Q41.8281 53.0126 41.7717 53.1487Q41.7153 53.2848 41.6459 53.4147Q41.5764 53.5447 41.4946 53.6671Q41.4127 53.7897 41.3193 53.9035Q41.2258 54.0174 41.1216 54.1216Q41.0174 54.2258 40.9035 54.3193Q40.7897 54.4127 40.6671 54.4946Q40.5446 54.5764 40.4147 54.6459Q40.2848 54.7153 40.1487 54.7717Q40.0125 54.8281 39.8716 54.8709Q39.7306 54.9136 39.5861 54.9424Q39.4416 54.9711 39.295 54.9856Q39.1483 55 39.001 55L2.999 55Q2.85167 55 2.70505 54.9856Q2.55842 54.9711 2.41392 54.9424Q2.26942 54.9136 2.12844 54.8709Q1.98745 54.8281 1.85133 54.7717Q1.71522 54.7153 1.58528 54.6459Q1.45535 54.5764 1.33284 54.4946Q1.21034 54.4127 1.09645 54.3193Q0.982566 54.2258 0.878387 54.1216Q0.774208 54.0174 0.680742 53.9035Q0.587276 53.7897 0.505423 53.6671Q0.42357 53.5447 0.354118 53.4147Q0.284667 53.2848 0.228285 53.1487Q0.171904 53.0126 0.129136 52.8716Q0.0863679 52.7306 0.0576249 52.5861Q0.028882 52.4416 0.014441 52.295Q0 52.1483 0 52.001L0 2.999Q0 2.85167 0.014441 2.70505Q0.028882 2.55842 0.0576249 2.41392Q0.0863679 2.26942 0.129136 2.12844Q0.171904 1.98745 0.228285 1.85133Q0.284667 1.71522 0.354118 1.58528Q0.42357 1.45535 0.505423 1.33284Q0.587276 1.21034 0.680742 1.09645Q0.774208 0.982566 0.878387 0.878387Q0.982566 0.774208 1.09645 0.680742Q1.21034 0.587276 1.33284 0.505423Q1.45535 0.42357 1.58528 0.354118Q1.71522 0.284667 1.85133 0.228285Q1.98745 0.171904 2.12844 0.129136Q2.26942 0.0863679 2.41392 0.0576249Q2.55842 0.028882 2.70505 0.014441Q2.85167 0 2.999 0Z" id="Rectangle-2" fill="#6B747E" fill-rule="evenodd" stroke="none" />
      <path d="M3 3L39 3L39 16L3 16L3 3Z" id="Rectangle-3" fill="url(#gradient_1)" fill-rule="evenodd" stroke="none" />
      <path d="M29 30L39 30L39 52L29 52L29 30Z" id="Rectangle-4" fill="#12427E" fill-rule="evenodd" stroke="none" />
      <path d="M29 18L39 18L39 28L29 28L29 18Z" id="Rectangle-5" fill="#BFC6CD" fill-rule="evenodd" stroke="none" />
      <path d="M16 18L26 18L26 28L16 28L16 18Z" id="Rectangle-5-Copy" fill="#BFC6CD" fill-rule="evenodd" stroke="none" />
      <path d="M3 18L13 18L13 28L3 28L3 18Z" id="Rectangle-5-Copy-2" fill="#BFC6CD" fill-rule="evenodd" stroke="none" />
      <path d="M3 30L13 30L13 40L3 40L3 30Z" id="Rectangle-5-Copy-3" fill="#BFC6CD" fill-rule="evenodd" stroke="none" />
      <path d="M3 42L13 42L13 52L3 52L3 42Z" id="Rectangle-5-Copy-4" fill="#BFC6CD" fill-rule="evenodd" stroke="none" />
      <path d="M16 30L26 30L26 40L16 40L16 30Z" id="Rectangle-5-Copy-5" fill="#BFC6CD" fill-rule="evenodd" stroke="none" />
      <path d="M16 42L26 42L26 52L16 52L16 42Z" id="Rectangle-5-Copy-6" fill="#BFC6CD" fill-rule="evenodd" stroke="none" />
    </g>
  </g>
</svg>