<?xml version="1.0" encoding="utf-8"?>
<svg width="48px" height="48px" viewBox="0 0 48 48" version="1.1" xmlns:xlink="http://www.w3.org/1999/xlink" xmlns="http://www.w3.org/2000/svg">
  <defs>
    <path d="M0 0L48 0L48 48L0 48L0 0Z" id="path_1" />
    <clipPath id="clip_1">
      <use xlink:href="#path_1" />
    </clipPath>
  </defs>
  <g id="Delete" clip-path="url(#clip_1)">
    <path d="M0 0L48 0L48 48L0 48L0 0Z" id="Delete" fill="none" fill-rule="evenodd" stroke="none" />
    <path d="M17.9285 12.6357L8.28195 22.9801C7.92393 23.3641 7.74492 23.8185 7.74492 24.3435C7.74492 24.8684 7.92393 25.3229 8.28195 25.7068L17.9285 36.0513C18.1175 36.254 18.3392 36.4107 18.5934 36.5212C18.8476 36.6317 19.1133 36.687 19.3905 36.687L40.001 36.687C40.553 36.687 41.0242 36.4918 41.4145 36.1015C41.8048 35.7111 42 35.24 42 34.688L42 13.999C42 13.447 41.8048 12.9758 41.4145 12.5855C41.0242 12.1951 40.553 12 40.001 12L19.3905 12C19.1133 12 18.8476 12.0553 18.5934 12.1658C18.3392 12.2763 18.1175 12.4329 17.9285 12.6357L17.9285 12.6357ZM19.6213 14.5855L11.4546 23.385C11.1515 23.7116 11 24.0982 11 24.5448C11 24.9913 11.1515 25.3779 11.4546 25.7045L19.6213 34.504C19.7813 34.6765 19.9689 34.8097 20.1841 34.9037C20.3993 34.9978 20.6243 35.0448 20.8589 35.0448L38.3076 35.0448C38.7749 35.0448 39.1738 34.8787 39.5043 34.5467C39.8347 34.2147 40 33.8139 40 33.3443L40 15.7452C40 15.2757 39.8347 14.8749 39.5043 14.5428C39.1738 14.2108 38.7749 14.0448 38.3076 14.0448L20.8589 14.0448C20.6243 14.0448 20.3993 14.0918 20.1841 14.1858C19.9689 14.2798 19.7813 14.4131 19.6213 14.5855L19.6213 14.5855ZM29.1818 26.4483L34.4496 31.7161Q34.4973 31.7638 34.5494 31.8065Q34.6016 31.8493 34.6576 31.8868Q34.7137 31.9243 34.7732 31.9561Q34.8327 31.9879 34.895 32.0137Q34.9573 32.0395 35.0219 32.0591Q35.0864 32.0787 35.1526 32.0918Q35.2188 32.105 35.2859 32.1116Q35.353 32.1182 35.4205 32.1182Q35.4879 32.1182 35.555 32.1116Q35.6222 32.105 35.6883 32.0918Q35.7545 32.0787 35.819 32.0591Q35.8836 32.0395 35.9459 32.0137Q36.0082 31.9879 36.0677 31.9561Q36.1272 31.9243 36.1833 31.8868Q36.2394 31.8493 36.2915 31.8065Q36.3437 31.7638 36.3914 31.7161L36.3928 31.7146Q36.4405 31.667 36.4833 31.6148Q36.5261 31.5627 36.5635 31.5066Q36.601 31.4505 36.6328 31.391Q36.6646 31.3315 36.6904 31.2692Q36.7162 31.2069 36.7358 31.1423Q36.7554 31.0778 36.7685 31.0116Q36.7817 30.9455 36.7883 30.8783Q36.7949 30.8112 36.7949 30.7438Q36.7949 30.6763 36.7883 30.6092Q36.7817 30.5421 36.7685 30.4759Q36.7554 30.4097 36.7358 30.3452Q36.7162 30.2806 36.6904 30.2183Q36.6646 30.156 36.6328 30.0965Q36.601 30.037 36.5635 29.9809Q36.5261 29.9249 36.4833 29.8727Q36.4405 29.8206 36.3928 29.7729L31.125 24.5051L36.3928 19.2374Q36.4405 19.1897 36.4833 19.1375Q36.5261 19.0854 36.5635 19.0293Q36.601 18.9732 36.6328 18.9137Q36.6646 18.8543 36.6904 18.7919Q36.7162 18.7296 36.7358 18.6651Q36.7554 18.6005 36.7685 18.5344Q36.7817 18.4682 36.7883 18.4011Q36.7949 18.3339 36.7949 18.2665Q36.7949 18.199 36.7883 18.1319Q36.7817 18.0648 36.7685 17.9986Q36.7554 17.9325 36.7358 17.8679Q36.7162 17.8034 36.6904 17.7411Q36.6646 17.6787 36.6328 17.6193Q36.601 17.5598 36.5635 17.5037Q36.5261 17.4476 36.4833 17.3955Q36.4405 17.3433 36.3928 17.2956L36.3914 17.2942Q36.3437 17.2465 36.2915 17.2037Q36.2394 17.1609 36.1833 17.1234Q36.1272 17.086 36.0677 17.0542Q36.0082 17.0224 35.9459 16.9966Q35.8836 16.9708 35.819 16.9512Q35.7545 16.9316 35.6883 16.9184Q35.6222 16.9053 35.5551 16.8987Q35.4879 16.892 35.4205 16.892Q35.353 16.892 35.2859 16.8987Q35.2188 16.9053 35.1526 16.9184Q35.0865 16.9316 35.0219 16.9512Q34.9574 16.9708 34.895 16.9966Q34.8327 17.0224 34.7732 17.0542Q34.7137 17.086 34.6577 17.1234Q34.6016 17.1609 34.5494 17.2037Q34.4973 17.2465 34.4496 17.2942L29.1818 22.562L23.9141 17.2942Q23.8664 17.2465 23.8142 17.2037Q23.7621 17.1609 23.706 17.1234Q23.6499 17.086 23.5904 17.0542Q23.531 17.0224 23.4686 16.9966Q23.4063 16.9708 23.3418 16.9512Q23.2772 16.9316 23.2111 16.9184Q23.1449 16.9053 23.0778 16.8987Q23.0107 16.892 22.9432 16.892Q22.8757 16.892 22.8086 16.8987Q22.7415 16.9053 22.6753 16.9184Q22.6092 16.9316 22.5446 16.9512Q22.4801 16.9708 22.4178 16.9966Q22.3554 17.0224 22.296 17.0542Q22.2365 17.086 22.1804 17.1234Q22.1243 17.1609 22.0722 17.2037Q22.02 17.2465 21.9723 17.2942L21.9709 17.2956Q21.9232 17.3433 21.8804 17.3955Q21.8376 17.4476 21.8001 17.5037Q21.7627 17.5598 21.7309 17.6193Q21.6991 17.6787 21.6733 17.7411Q21.6475 17.8034 21.6279 17.8679Q21.6083 17.9325 21.5951 17.9986Q21.582 18.0648 21.5754 18.1319Q21.5687 18.199 21.5687 18.2665Q21.5687 18.3339 21.5754 18.4011Q21.582 18.4682 21.5951 18.5344Q21.6083 18.6005 21.6279 18.6651Q21.6474 18.7296 21.6733 18.7919Q21.6991 18.8543 21.7309 18.9137Q21.7627 18.9732 21.8001 19.0293Q21.8376 19.0854 21.8804 19.1375Q21.9232 19.1897 21.9709 19.2374L27.2387 24.5051L21.9709 29.7729Q21.9232 29.8206 21.8804 29.8727Q21.8376 29.9249 21.8001 29.9809Q21.7627 30.037 21.7309 30.0965Q21.6991 30.156 21.6733 30.2183Q21.6475 30.2806 21.6279 30.3452Q21.6083 30.4097 21.5951 30.4759Q21.582 30.5421 21.5754 30.6092Q21.5687 30.6763 21.5687 30.7438Q21.5687 30.8112 21.5754 30.8783Q21.582 30.9455 21.5951 31.0116Q21.6083 31.0778 21.6279 31.1423Q21.6475 31.2069 21.6733 31.2692Q21.6991 31.3315 21.7309 31.391Q21.7627 31.4505 21.8001 31.5066Q21.8376 31.5627 21.8804 31.6148Q21.9232 31.667 21.9709 31.7146L21.9723 31.7161Q22.02 31.7638 22.0722 31.8065Q22.1243 31.8493 22.1804 31.8868Q22.2365 31.9243 22.296 31.9561Q22.3554 31.9879 22.4178 32.0137Q22.4801 32.0395 22.5446 32.0591Q22.6092 32.0787 22.6753 32.0918Q22.7415 32.105 22.8086 32.1116Q22.8757 32.1182 22.9432 32.1182Q23.0107 32.1182 23.0778 32.1116Q23.1449 32.105 23.2111 32.0918Q23.2772 32.0787 23.3418 32.0591Q23.4063 32.0395 23.4686 32.0137Q23.531 31.9879 23.5904 31.9561Q23.6499 31.9243 23.706 31.8868Q23.7621 31.8493 23.8142 31.8066Q23.8664 31.7638 23.9141 31.7161L29.1818 26.4483L29.1818 26.4483Z" id="Shape" fill="#FFFFFF" fill-rule="evenodd" stroke="none" />
  </g>
</svg>