<?xml version="1.0" encoding="utf-8"?>
<svg width="48px" height="48px" viewBox="0 0 48 48" version="1.1" xmlns:xlink="http://www.w3.org/1999/xlink" xmlns="http://www.w3.org/2000/svg">
  <defs>
    <path d="M0 0L48 0L48 48L0 48L0 0Z" id="path_1" />
    <clipPath id="clip_1">
      <use xlink:href="#path_1" />
    </clipPath>
  </defs>
  <g id="Divide" clip-path="url(#clip_1)">
    <path d="M0 0L48 0L48 48L0 48L0 0Z" id="Divide" fill="none" fill-rule="evenodd" stroke="none" />
    <path d="M12.9487 23L35.0513 23C35.5894 23 36.0487 23.1463 36.4292 23.439C36.8097 23.7317 37 24.0851 37 24.499L37 24.501C37 24.9149 36.8097 25.2682 36.4292 25.5609C36.0487 25.8536 35.5894 26 35.0513 26L12.9487 26C12.4106 26 11.9513 25.8536 11.5708 25.561C11.1903 25.2682 11 24.9149 11 24.501L11 24.499C11 24.0851 11.1903 23.7317 11.5708 23.439C11.9513 23.1463 12.4106 23 12.9487 23L12.9487 23ZM22 17C22 15.8954 22.8954 15 24 15C25.1046 15 26 15.8954 26 17C26 18.1046 25.1046 19 24 19C22.8954 19 22 18.1046 22 17ZM22 32C22 30.8954 22.8954 30 24 30C25.1046 30 26 30.8954 26 32C26 33.1046 25.1046 34 24 34C22.8954 34 22 33.1046 22 32Z" id="Vector" fill="#FFFFFF" fill-rule="evenodd" stroke="none" />
  </g>
</svg>