<?xml version="1.0" encoding="utf-8"?>
<svg width="48px" height="48px" viewBox="0 0 48 48" version="1.1" xmlns:xlink="http://www.w3.org/1999/xlink" xmlns="http://www.w3.org/2000/svg">
  <defs>
    <path d="M0 0L48 0L48 48L0 48L0 0Z" id="path_1" />
    <clipPath id="clip_1">
      <use xlink:href="#path_1" />
    </clipPath>
  </defs>
  <g id="Equals" clip-path="url(#clip_1)">
    <path d="M0 0L48 0L48 48L0 48L0 0Z" id="Equals" fill="none" fill-rule="evenodd" stroke="none" />
    <path d="M12.9487 18L35.0513 18C35.5894 18 36.0487 18.1463 36.4292 18.439C36.8097 18.7317 37 19.0851 37 19.499L37 19.501C37 19.9149 36.8097 20.2682 36.4292 20.5609C36.0487 20.8536 35.5894 21 35.0513 21L12.9487 21C12.4106 21 11.9513 20.8536 11.5708 20.561C11.1903 20.2682 11 19.9149 11 19.501L11 19.499C11 19.0851 11.1903 18.7317 11.5708 18.439C11.9513 18.1463 12.4106 18 12.9487 18L12.9487 18ZM12.9487 26L35.0513 26C35.5894 26 36.0487 26.1463 36.4292 26.439C36.8097 26.7317 37 27.0851 37 27.499L37 27.501C37 27.9149 36.8097 28.2682 36.4292 28.5609C36.0487 28.8536 35.5894 29 35.0513 29L12.9487 29C12.4106 29 11.9513 28.8536 11.5708 28.561C11.1903 28.2682 11 27.9149 11 27.501L11 27.499C11 27.0851 11.1903 26.7317 11.5708 26.439C11.9513 26.1463 12.4106 26 12.9487 26L12.9487 26Z" id="Vector" fill="#FFFFFF" fill-rule="evenodd" stroke="none" />
  </g>
</svg>