<?xml version="1.0" encoding="utf-8"?>
<svg width="48px" height="48px" viewBox="0 0 48 48" version="1.1" xmlns:xlink="http://www.w3.org/1999/xlink" xmlns="http://www.w3.org/2000/svg">
  <defs>
    <path d="M0 0L48 0L48 48L0 48L0 0Z" id="path_1" />
    <clipPath id="clip_1">
      <use xlink:href="#path_1" />
    </clipPath>
  </defs>
  <g id="Multiply" clip-path="url(#clip_1)">
    <path d="M0 0L48 0L48 48L0 48L0 0Z" id="Multiply" fill="none" fill-rule="evenodd" stroke="none" />
    <path d="M31.4881 34.3638L24.5688 27.4445L17.6494 34.3638C17.4803 34.5329 17.2853 34.6632 17.0643 34.7548C16.8434 34.8463 16.6133 34.892 16.3741 34.892C16.135 34.892 15.9049 34.8463 15.684 34.7548C15.463 34.6632 15.268 34.5329 15.0989 34.3638L15.097 34.3619C14.7448 34.0098 14.5688 33.5847 14.5688 33.0867C14.5688 32.5886 14.7448 32.1635 15.097 31.8114L22.0163 24.892L15.097 17.9727C14.9279 17.8036 14.7976 17.6086 14.706 17.3876C14.6145 17.1666 14.5688 16.9366 14.5688 16.6974C14.5688 16.4583 14.6145 16.2282 14.706 16.0072C14.7976 15.7863 14.9279 15.5913 15.097 15.4221L15.0989 15.4203C15.451 15.0681 15.8761 14.892 16.3741 14.892C16.8722 14.892 17.2973 15.0681 17.6494 15.4203L24.5688 22.3396L31.4881 15.4203C31.8403 15.0681 32.2654 14.892 32.7634 14.892C33.2614 14.892 33.6865 15.0681 34.0387 15.4203L34.0405 15.4221C34.2096 15.5913 34.34 15.7863 34.4315 16.0072C34.523 16.2282 34.5688 16.4583 34.5688 16.6974C34.5688 16.9366 34.523 17.1666 34.4315 17.3876C34.34 17.6086 34.2096 17.8036 34.0405 17.9727L27.1212 24.892L34.0405 31.8114C34.3927 32.1635 34.5688 32.5886 34.5688 33.0867C34.5688 33.5847 34.3927 34.0098 34.0405 34.3619L34.0387 34.3638C33.8696 34.5329 33.6745 34.6632 33.4536 34.7548C33.2326 34.8463 33.0025 34.892 32.7634 34.892C32.5242 34.892 32.2942 34.8463 32.0732 34.7548C31.8522 34.6632 31.6572 34.5329 31.4881 34.3638L31.4881 34.3638Z" id="Vector" fill="#FFFFFF" fill-rule="evenodd" stroke="none" />
  </g>
</svg>