<?xml version="1.0" encoding="utf-8"?>
<svg width="48px" height="48px" viewBox="0 0 48 48" version="1.1" xmlns:xlink="http://www.w3.org/1999/xlink" xmlns="http://www.w3.org/2000/svg">
  <defs>
    <path d="M0 0L48 0L48 48L0 48L0 0Z" id="path_1" />
    <clipPath id="clip_1">
      <use xlink:href="#path_1" />
    </clipPath>
  </defs>
  <g id="Percent" clip-path="url(#clip_1)">
    <path d="M0 0L48 0L48 48L0 48L0 0Z" id="Percent" fill="none" fill-rule="evenodd" stroke="none" />
    <path d="M13 17.5C13 14.4624 15.4624 12 18.5 12C21.5376 12 24 14.4624 24 17.5C24 20.5376 21.5376 23 18.5 23C15.4624 23 13 20.5376 13 17.5L13 17.5ZM30.2409 13.2188L15.3123 31.0099C15.1562 31.196 15.0416 31.4049 14.9685 31.6366C14.8954 31.8683 14.8695 32.1052 14.8907 32.3472C14.9119 32.5893 14.9785 32.818 15.0907 33.0335C15.2029 33.249 15.3521 33.4348 15.5382 33.591L15.54 33.5926C15.7261 33.7488 15.935 33.8633 16.1667 33.9364C16.3985 34.0095 16.6353 34.0354 16.8774 34.0142C17.1194 33.9931 17.3482 33.9264 17.5636 33.8142C17.7791 33.702 17.965 33.5529 18.1212 33.3668L33.0497 15.5757C33.2059 15.3895 33.3205 15.1806 33.3935 14.9489C33.4666 14.7172 33.4925 14.4803 33.4714 14.2383C33.4502 13.9963 33.3835 13.7675 33.2713 13.552C33.1591 13.3365 33.01 13.1507 32.8239 12.9945L32.822 12.9929C32.6359 12.8368 32.427 12.7222 32.1953 12.6491C31.9635 12.576 31.7267 12.5501 31.4847 12.5713C31.2426 12.5924 31.0139 12.6591 30.7984 12.7713C30.5829 12.8835 30.3971 13.0326 30.2409 13.2188L30.2409 13.2188ZM15.5972 17.5C15.5972 15.8969 16.8968 14.5972 18.5 14.5972C20.1032 14.5972 21.4028 15.8969 21.4028 17.5C21.4028 19.1032 20.1032 20.4028 18.5 20.4028C16.8968 20.4028 15.5972 19.1032 15.5972 17.5L15.5972 17.5ZM29.5 24.2222C26.4624 24.2222 24 26.6847 24 29.7222C24 32.7598 26.4624 35.2222 29.5 35.2222C32.5376 35.2222 35 32.7598 35 29.7222C35 26.6847 32.5376 24.2222 29.5 24.2222L29.5 24.2222ZM29.5 26.8194C27.8968 26.8194 26.5972 28.119 26.5972 29.7222C26.5972 31.3254 27.8968 32.625 29.5 32.625C31.1032 32.625 32.4028 31.3254 32.4028 29.7222C32.4028 28.119 31.1032 26.8194 29.5 26.8194L29.5 26.8194Z" id="Vector" fill="#FFFFFF" fill-rule="evenodd" stroke="none" />
  </g>
</svg>