<?xml version="1.0" encoding="utf-8"?>
<svg width="48px" height="48px" viewBox="0 0 48 48" version="1.1" xmlns:xlink="http://www.w3.org/1999/xlink" xmlns="http://www.w3.org/2000/svg">
  <defs>
    <path d="M0 0L48 0L48 48L0 48L0 0Z" id="path_1" />
    <clipPath id="clip_1">
      <use xlink:href="#path_1" />
    </clipPath>
  </defs>
  <g id="Plus" clip-path="url(#clip_1)">
    <path d="M0 0L48 0L48 48L0 48L0 0Z" id="Plus" fill="none" fill-rule="evenodd" stroke="none" />
    <path d="M22.7639 36.4823L22.7639 26.6969L12.9785 26.6969C12.7393 26.6969 12.5093 26.6511 12.2883 26.5596C12.0674 26.468 11.8723 26.3377 11.7032 26.1686C11.5341 25.9995 11.4038 25.8045 11.3123 25.5835C11.2207 25.3625 11.175 25.1325 11.175 24.8933L11.175 24.8907C11.175 24.3927 11.3511 23.9676 11.7032 23.6154C12.0554 23.2633 12.4805 23.0872 12.9785 23.0872L22.7639 23.0872L22.7639 13.3018C22.7639 13.0626 22.8097 12.8325 22.9012 12.6116C22.9927 12.3906 23.1231 12.1956 23.2922 12.0265C23.4613 11.8574 23.6563 11.727 23.8773 11.6355C24.0982 11.544 24.3283 11.4982 24.5674 11.4982L24.5701 11.4982C25.0681 11.4982 25.4932 11.6743 25.8454 12.0265C26.1975 12.3786 26.3736 12.8037 26.3736 13.3018L26.3736 23.0872L36.159 23.0872C36.657 23.0872 37.0821 23.2633 37.4343 23.6154C37.7865 23.9676 37.9625 24.3927 37.9625 24.8907L37.9625 24.8933C37.9625 25.1325 37.9168 25.3626 37.8252 25.5835C37.7337 25.8045 37.6034 25.9995 37.4343 26.1686C37.2652 26.3377 37.0701 26.468 36.8492 26.5596C36.6282 26.6511 36.3982 26.6968 36.159 26.6968L26.3736 26.6968L26.3736 36.4823C26.3736 36.9803 26.1975 37.4054 25.8454 37.7575C25.4932 38.1097 25.0681 38.2858 24.5701 38.2858L24.5674 38.2858C24.3283 38.2858 24.0982 38.24 23.8773 38.1485C23.6563 38.057 23.4613 37.9267 23.2922 37.7575C23.123 37.5884 22.9927 37.3934 22.9012 37.1724C22.8097 36.9515 22.7639 36.7214 22.7639 36.4823L22.7639 36.4823Z" id="Vector" fill="#FFFFFF" fill-rule="evenodd" stroke="none" />
  </g>
</svg>