<?xml version="1.0" encoding="utf-8"?>
<svg width="48px" height="48px" viewBox="0 0 48 48" version="1.1" xmlns:xlink="http://www.w3.org/1999/xlink" xmlns="http://www.w3.org/2000/svg">
  <defs>
    <path d="M0 0L48 0L48 48L0 48L0 0Z" id="path_1" />
    <clipPath id="clip_1">
      <use xlink:href="#path_1" />
    </clipPath>
  </defs>
  <g id="Squareroot" clip-path="url(#clip_1)">
    <path d="M0 0L48 0L48 48L0 48L0 0Z" id="Squareroot" fill="none" fill-rule="evenodd" stroke="none" />
    <path d="M9.06829 22.1088L9.06829 23.7016L16.9582 23.7016L16.9582 21.9046L11.7325 21.9046L11.7325 21.8229L13.9525 19.495C14.8918 18.5148 15.5763 17.6827 16.0062 16.9985C16.4359 16.3145 16.6508 15.5538 16.6508 14.7165C16.6508 13.6546 16.3007 12.7697 15.6006 12.0619C14.9004 11.354 13.9867 11 12.8596 11C11.7325 11 10.8074 11.3557 10.0844 12.067C9.36145 12.7783 8.99999 13.7159 8.99999 14.8799L10.7761 14.8799C10.7761 14.2469 10.9639 13.7346 11.3396 13.3432C11.7153 12.9518 12.2106 12.7561 12.8254 12.7561C13.406 12.7561 13.8928 12.9365 14.2856 13.2973C14.6783 13.6581 14.8748 14.1448 14.8748 14.7574C14.8748 15.2883 14.7225 15.7801 14.4179 16.2327C14.1134 16.6854 13.6623 17.2283 13.0645 17.8613L9.06829 22.1088L9.06829 22.1088ZM17.9203 31.7014L15.8197 24.932L11.926 24.932L11.926 27.1783L14.1717 27.1783L17.0835 36L18.8596 36L24.7653 17.3147L37.9981 17.3147L39 15.0893L23.0607 15.0893L17.9203 31.7014L17.9203 31.7014ZM23.4314 32.7616L22.3982 35.3308C22.9069 35.5648 23.3218 35.6818 23.6427 35.6818C24.9186 35.6818 26.6875 33.9596 28.9496 30.5154L29.9007 29.0693L31.4152 33.3653C31.9632 34.9096 32.6794 35.6818 33.5638 35.6818C34.4875 35.6818 35.5481 34.8956 36.7457 33.3232L37.0274 31.6385C36.0334 33.033 35.2585 33.7303 34.7027 33.7303C34.2957 33.7303 33.8887 33.1454 33.4817 31.9754L31.7205 27.0757L32.2841 26.2615C34.0374 23.697 35.5637 22.4147 36.8631 22.4147C37.1605 22.4147 37.4697 22.5317 37.7906 22.7657L38.9999 20.2106C38.5851 19.9017 38.182 19.7473 37.7906 19.7473C36.3269 19.7473 34.4522 21.4882 32.1667 24.9699L31.4035 26.1351L30.065 22.4709C29.3997 20.6552 28.6874 19.7473 27.9282 19.7473C27.1141 19.7473 26.1357 20.6458 24.9929 22.4428L24.6877 24.282C25.6426 22.7564 26.3549 21.9936 26.8245 21.9936C27.2081 21.9936 27.5994 22.5598 27.9986 23.6923L29.5954 28.1848L28.8909 29.2097C27.0985 31.7742 25.6074 33.0564 24.4176 33.0564C24.0497 33.0564 23.721 32.9582 23.4314 32.7616L23.4314 32.7616Z" id="Shape" fill="#FFFFFF" fill-rule="evenodd" stroke="none" />
  </g>
</svg>