<?xml version="1.0" encoding="utf-8"?>
<svg width="48px" height="48px" viewBox="0 0 48 48" version="1.1" xmlns:xlink="http://www.w3.org/1999/xlink" xmlns="http://www.w3.org/2000/svg">
  <defs>
    <path d="M0 0L48 0L48 48L0 48L0 0Z" id="path_1" />
    <clipPath id="clip_1">
      <use xlink:href="#path_1" />
    </clipPath>
  </defs>
  <g id="Trash" clip-path="url(#clip_1)">
    <path d="M0 0L48 0L48 48L0 48L0 0Z" id="Trash" fill="none" fill-rule="evenodd" stroke="none" />
    <path d="M24 4C20.4917 4 17.5704 6.62143 17.0801 10L10.2383 10C10.1531 9.98543 10.0669 9.97824 9.98047 9.97852C9.90582 9.98013 9.83139 9.98731 9.75781 10L6.5 10C5.95905 9.99235 5.45588 10.2766 5.18317 10.7438C4.91046 11.2111 4.91046 11.7889 5.18317 12.2562C5.45588 12.7234 5.95905 13.0077 6.5 13L8.63867 13L11.1563 39.0293C11.4273 41.8359 13.8118 44 16.6309 44L31.3672 44C34.1864 44 36.5708 41.8362 36.8418 39.0293L39.3613 13L41.5 13C42.041 13.0076 42.5441 12.7234 42.8168 12.2562C43.0895 11.7889 43.0895 11.2111 42.8168 10.7438C42.5441 10.2766 42.041 9.99235 41.5 10L38.2441 10C38.085 9.97419 37.9228 9.97419 37.7637 10L30.9199 10C30.4296 6.62143 27.5083 4 24 4L24 4ZM24 7C25.8792 7 27.4208 8.26816 27.8613 10L20.1387 10C20.5792 8.26816 22.1208 7 24 7L24 7ZM11.6504 13L36.3477 13L33.8555 38.7402C33.7304 40.0354 32.668 41 31.3672 41L16.6309 41C15.3319 41 14.2675 40.0336 14.1426 38.7402L11.6504 13L11.6504 13ZM20.4766 17.9785C19.6489 17.9914 18.9881 18.6723 19 19.5L19 34.5C18.9924 35.041 19.2766 35.5441 19.7438 35.8168C20.2111 36.0895 20.7889 36.0895 21.2562 35.8168C21.7234 35.5441 22.0076 35.041 22 34.5L22 19.5C22.0058 19.0944 21.8471 18.7037 21.5601 18.417C21.2731 18.1304 20.8822 17.9722 20.4766 17.9785L20.4766 17.9785ZM27.4766 17.9785C26.6489 17.9914 25.9881 18.6723 26 19.5L26 34.5C25.9924 35.041 26.2766 35.5441 26.7438 35.8168C27.2111 36.0895 27.7889 36.0895 28.2562 35.8168C28.7234 35.5441 29.0076 35.041 29 34.5L29 19.5C29.0058 19.0944 28.8471 18.7037 28.5601 18.417C28.2731 18.1304 27.8822 17.9722 27.4766 17.9785L27.4766 17.9785Z" id="Shape" fill="#FFFFFF" fill-rule="evenodd" stroke="none" />
  </g>
</svg>