<?xml version="1.0" encoding="utf-8"?>
<svg width="48px" height="48px" viewBox="0 0 48 48" version="1.1" xmlns:xlink="http://www.w3.org/1999/xlink" xmlns="http://www.w3.org/2000/svg">
  <defs>
    <path d="M0 0L48 0L48 48L0 48L0 0Z" id="path_1" />
    <clipPath id="clip_1">
      <use xlink:href="#path_1" />
    </clipPath>
  </defs>
  <g id="XPower2" clip-path="url(#clip_1)">
    <path d="M0 0L48 0L48 48L0 48L0 0Z" id="XPower2" fill="none" fill-rule="evenodd" stroke="none" />
    <path d="M29.3486 22.8139L29.3486 24.5078L39 24.5078L39 22.5967L32.6076 22.5967L32.6076 22.5098L35.3233 20.0341C36.4723 18.9917 37.3096 18.1068 37.8354 17.3793C38.3611 16.6518 38.624 15.8428 38.624 14.9524C38.624 13.8231 38.1957 12.8821 37.3392 12.1293C36.4827 11.3764 35.3651 11 33.9863 11C32.6076 11 31.476 11.3782 30.5916 12.1347C29.7072 12.8912 29.2651 13.8883 29.2651 15.1262L31.4376 15.1262C31.4376 14.4529 31.6674 13.9082 32.127 13.4919C32.5866 13.0757 33.1924 12.8676 33.9445 12.8676C34.6548 12.8676 35.2502 13.0594 35.7307 13.4431C36.2111 13.8268 36.4514 14.3444 36.4514 14.9959C36.4514 15.5605 36.2651 16.0835 35.8925 16.5649C35.52 17.0463 34.9682 17.6236 34.237 18.2968L29.3486 22.8139L29.3486 22.8139ZM10.2639 32.8945L9 35.6267C9.62236 35.8756 10.1298 36 10.5224 36C12.0831 36 14.247 34.1686 17.0141 30.5057L18.1774 28.9679L20.0302 33.5365C20.7004 35.1788 21.5765 36 22.6584 36C23.7883 36 25.0857 35.1639 26.5506 33.4917L26.8953 31.7001C25.6793 33.1832 24.7314 33.9247 24.0516 33.9247C23.5537 33.9247 23.0558 33.3026 22.5579 32.0584L20.4036 26.8478L21.093 25.9818C23.2377 23.2545 25.1048 21.8909 26.6942 21.8909C27.0581 21.8909 27.4363 22.0153 27.8288 22.2642L29.3081 19.5469C28.8007 19.2184 28.3076 19.0542 27.8288 19.0542C26.0383 19.0542 23.7452 20.9055 20.9493 24.6082L20.0158 25.8474L18.3785 21.9506C17.5647 20.0197 16.6933 19.0542 15.7646 19.0542C14.7688 19.0542 13.572 20.0097 12.174 21.9208L11.8006 23.8766C12.9688 22.2542 13.8401 21.443 14.4145 21.443C14.8837 21.443 15.3625 22.0452 15.8508 23.2496L17.804 28.0272L16.9423 29.1172C14.7497 31.8444 12.9257 33.208 11.4703 33.208C11.0203 33.208 10.6181 33.1035 10.2639 32.8945L10.2639 32.8945Z" id="Shape" fill="#FFFFFF" fill-rule="evenodd" stroke="none" />
  </g>
</svg>